<?xml version="1.0" encoding="iso-8859-1"?>
<!-- Generator: Adobe Illustrator 18.0.0, SVG Export Plug-In . SVG Version: 6.00 Build 0)  -->
<!DOCTYPE svg PUBLIC "-//W3C//DTD SVG 1.1//EN" "http://www.w3.org/Graphics/SVG/1.1/DTD/svg11.dtd">
<svg version="1.1" id="Capa_1" xmlns="http://www.w3.org/2000/svg" xmlns:xlink="http://www.w3.org/1999/xlink" x="0px" y="0px"
	 viewBox="0 0 297.5 297.5" style="enable-background:new 0 0 297.5 297.5;" xml:space="preserve">
<g id="XMLID_46_">
	<g>
		<path style="fill:#EA5B2C;" d="M275.646,21.7c1.24,1.24,1.36,2.91,1.32,3.79c-0.091,1.84-0.94,3.71-2.36,5.13l-53.21,53.21
			c-1.5,1.5-3.47,2.36-5.41,2.36c-1,0-2.41-0.23-3.51-1.33c-1.24-1.24-1.36-2.91-1.32-3.801c0.08-1.84,0.94-3.699,2.36-5.119
			l53.21-53.21c1.5-1.5,3.47-2.36,5.41-2.36C273.126,20.37,274.546,20.6,275.646,21.7z"/>
		<path d="M289.866,7.47c4.96,4.96,7.521,11.681,7.2,18.92c-0.31,6.9-3.24,13.46-8.23,18.45l-53.21,53.21
			c-5.25,5.25-12.409,8.26-19.64,8.26c-3.18,0-6.24-0.569-9.09-1.649l-25.66,25.67c-5.49,20.86-32.89,121.34-57.21,145.66
			c-13.71,13.71-31.94,21.26-51.34,21.26c-19.141,0-37.69-7.93-51.34-21.3c-27.731-28.351-28.11-74.53,0.01-102.641
			c24.309-24.31,124.79-51.72,145.66-57.21l25.66-25.659c-3.57-9.421-1.311-20.801,6.609-28.73l53.21-53.21
			c5.25-5.24,12.4-8.25,19.641-8.25C278.916,0.25,285.216,2.81,289.866,7.47z M276.966,25.49c0.04-0.88-0.08-2.55-1.32-3.79
			c-1.101-1.101-2.521-1.33-3.51-1.33c-1.94,0-3.91,0.86-5.41,2.36l-53.21,53.21c-1.42,1.42-2.28,3.279-2.36,5.119
			c-0.04,0.891,0.08,2.561,1.32,3.801c1.1,1.1,2.51,1.33,3.51,1.33c1.94,0,3.91-0.86,5.41-2.36l53.21-53.21
			C276.026,29.2,276.876,27.33,276.966,25.49z M109.806,261.76c10.779-10.79,24.09-45.45,34.96-78.859
			c-17.65,24.949-37.67,51.949-49.771,64.05c-10.479,10.479-23.96,21.399-37.04,28.09c4.73,1.37,9.67,2.09,14.73,2.09
			C86.706,277.13,99.886,271.67,109.806,261.76z M80.766,232.72c12.35-12.35,34.59-42.87,52.95-69.1
			c-26.23,18.36-56.75,40.6-69.101,52.95c-21.57,21.569-28.72,39.21-28.7,44.79C43.906,261.25,62.266,251.22,80.766,232.72z
			 M50.386,202.35c12.1-12.1,39.1-32.13,64.05-49.77c-33.41,10.87-68.08,24.17-78.86,34.96c-14.01,14.01-18.42,34.05-13.24,51.86
			C28.376,227.55,38.276,214.46,50.386,202.35z"/>
	</g>
	<g>
	</g>
</g>
<g>
</g>
<g>
</g>
<g>
</g>
<g>
</g>
<g>
</g>
<g>
</g>
<g>
</g>
<g>
</g>
<g>
</g>
<g>
</g>
<g>
</g>
<g>
</g>
<g>
</g>
<g>
</g>
<g>
</g>
</svg>
